G04 ================== begin FILE IDENTIFICATION RECORD ==================*
G04 Layout Name:  SCHEMA_BLOC.brd*
G04 Film Name:    BOTTOM*
G04 File Format:  Gerber RS274X*
G04 File Origin:  Cadence Allegro 17.2-S025*
G04 Origin Date:  Fri Dec 13 00:55:38 2024*
G04 *
G04 Layer:  ETCH/BOTTOM*
G04 Layer:  PIN/BOTTOM*
G04 Layer:  VIA CLASS/BOTTOM*
G04 *
G04 Offset:    (0.0000 0.0000)*
G04 Mirror:    No*
G04 Mode:      Positive*
G04 Rotation:  0*
G04 FullContactRelief:  No*
G04 UndefLineWidth:     0.1000*
G04 ================== end FILE IDENTIFICATION RECORD ====================*
%FSLAX25Y25*MOIN*%
%IR0*IPPOS*OFA0.00000B0.00000*MIA0B0*SFA1.00000B1.00000*%
%ADD10C,.034*%
%ADD11C,.016*%
%ADD12C,.026*%
%ADD13C,.018*%
G75*
%LPD*%
G75*
G54D10*
X59460Y32132D03*
X59786Y77384D03*
Y107826D03*
X61680Y120191D03*
X83346Y38767D03*
X71706Y37571D03*
X89913Y73126D03*
X69739Y77060D03*
X73575Y111406D03*
X106728Y10050D03*
X124720Y32949D03*
X104360Y41204D03*
X104780Y24948D03*
X102323Y73134D03*
X121379Y65767D03*
X106525Y107176D03*
X136287Y12917D03*
X146898Y32949D03*
X138863Y76369D03*
G54D11*
G01X59786Y77384D02*
Y107826D01*
G01X89913Y73126D02*
X64044D01*
X59786Y77384D01*
G01X83346Y38767D02*
X97165Y24948D01*
X104780D01*
G01X71706Y37571D02*
X74981D01*
X76177Y38767D01*
X83346D01*
G01X102323Y73134D02*
X98980D01*
X98972Y73126D01*
X89913D01*
G01X69739Y77060D02*
Y107570D01*
X73575Y111406D01*
G01X146898Y32949D02*
X124720D01*
G54D12*
G01X77755Y53596D02*
Y50426D01*
X59460Y32132D01*
G01X61680Y120191D02*
X55150Y113661D01*
Y75126D01*
X76680Y53596D01*
X77755D01*
G01X104360D02*
X77755D01*
G01X104360Y41204D02*
Y53596D01*
G01D02*
X116089D01*
X138863Y76369D01*
G54D13*
G01X106728Y10050D02*
X133420D01*
X136287Y12917D01*
G01X121379Y65767D02*
X106525Y80622D01*
Y107176D01*
M02*
